PathFileType	4	(X/Y/Z)	C:\Users\avatar\Documents\avatar\mocap1\10002-20130731010438-Unnamed.trc
DataRate	CameraRate	NumFrames	NumMarkers	Units	OrigDataRate	OrigDataStartFrame	OrigNumFrames
400.00	400.00	      7	0	mm	400.00	1149	      1313
Frame#	Time	
		

1149	2.870	-1021.24628	260.57806	277.45117										20.75274	140.85056	459.01880	1500.87585	1033.14355	1137.26086	1948.26184	1188.84656	1152.72314	134.88438	1799.66052	502.07333	122.74674	1081.99817	686.93616																-49.37091	1055.13074	439.05103	-135.80945	1130.82117	638.37769	-2003.97021	720.77722	152.58028	-47.39174	226.34013	759.41107	-1025.51636	1294.23413	401.21954				735.54395	1312.83887	789.88959	117.83665	1413.06421	94.29665	-4599.51416	1111.26270	-772.42017							240.82309	1356.38281	759.04364				-1130.05127	797.04303	389.55176	
1150	2.872	-1019.78711	261.30756	277.99365	4.05000	61.50607	798.79956	20.65929	141.56729	459.59000	1504.26965	1033.39087	1139.20923							1948.62463	1189.05359	1153.01538	135.81395	1800.62048	502.19702	124.54719	1083.02881	687.40594	-47.64278	1056.68958	439.95129	-1999.13696	722.45380	154.78943	-45.22719	225.87379	760.61084	-1021.81921	1295.28259	402.35855	117.82905	1413.15625	94.47511				-134.52316	1131.71069	638.83752													735.91150	1314.36560	790.68958				-4612.56348	1111.67529	-776.94543							242.07913	1356.98511	759.65771				-1128.83154	798.09613	390.42709	
1151	2.875	-1018.04895	262.17245	278.97870				20.18577	141.72514	460.25336				1508.86755	1034.37524	1142.04980	-663.50922	216.26419	626.26178	1954.36365	1192.20557	1155.24646	137.22838	1801.72363	502.27487	126.39022	1084.04919	687.71570																-104.56845	1499.36780	381.72223	-133.62781	1131.80774	639.03015	38.85742	744.18054	380.13770	-1999.29907	723.40771	155.11517	-43.19215	225.21008	763.18445				735.92883	1314.73450	791.02588				-4625.42529	1111.99329	-781.01312							243.28352	1357.39001	760.14337				-1130.17053	798.34552	390.59271	
1152	2.878	-1016.84100	262.76169	279.34540	1515.18591	1036.01306	1144.59558	20.37394	142.00473	461.16528	54.02264	1063.88354	365.16208							1956.16052	1193.23572	1156.12622	137.92223	1802.56482	502.29474	128.13583	1085.05273	687.88849	-45.22964	1058.94153	441.61273	-1998.42542	724.37823	156.06216	261.11508	1438.66418	751.85797	-1018.94550	1295.52307	403.81421							-132.70198	1131.95752	639.26508													736.30188	1315.82813	791.47894				-4635.66504	1112.43384	-784.02301							244.95699	1358.22986	760.73102				-1130.09680	799.18304	390.98651	
1153	2.880	-1015.86182	262.69870	279.74478				19.79559	142.11165	462.51819				-2873.12793	1264.18384	-274.58673	1522.08032	1037.96838	1147.53601	1956.72852	1193.51563	1156.48230	138.87387	1803.64685	502.32437	129.88698	1085.93237	688.28394													-1996.28687	725.85114	156.87895	262.57083	1439.28796	752.39771	-131.59593	1132.22290	639.56830	-1016.41919	1296.04565	405.09030										736.09888	1315.85986	791.78931													246.66785	1359.43945	761.43732				-1130.81030	799.56775	391.57870	
1154	2.882	-1015.06097	261.89951	280.50223	-2879.67676	1264.89282	-276.38525	19.32740	142.21150	463.37320	1526.02148	1038.35754	1149.81519							1956.76050	1193.52502	1156.72534	139.84526	1804.49487	502.44617	131.33263	1086.80457	688.63007	-439.46909	219.60904	708.18640	247.67433	1433.39172	129.71928	-1997.46326	726.54803	157.26050	-1015.96179	1296.53149	405.16092							-127.58116	1135.54700	641.06158													735.83478	1316.25684	792.39862													247.57109	1359.72949	761.89465				-1131.74890	800.40381	392.43411	
1155	2.885	-1014.03400	262.55923	281.37115				19.10592	142.53877	463.77811				-2906.12524	1264.96790	-283.86530	1529.73132	1038.58301	1151.75745	1957.05237	1193.66614	1157.10608	141.03398	1805.63281	502.54358	133.33279	1088.08643	688.96515										-1015.49213	1298.33167	405.86966	-438.54300	219.80823	709.57300	248.64774	1434.10754	130.78081	-125.90321	1136.34631	641.56610	-1998.31360	727.49005	157.66634																									248.95554	1360.43396	762.41010				-1131.25671	800.61530	393.13303	
